HIERARCHY
ROOT root
{
	OFFSET 0.000000 0.000000 0.000000
	CHANNELS 6 Xposition Yposition Zposition Xrotation Yrotation Zrotation
	JOINT Becken
	{
		OFFSET 0.000000 0.211570 0.405722
		CHANNELS 6 Xposition Yposition Zposition Xrotation Yrotation Zrotation
		JOINT Bauch
		{
			OFFSET 0.000000 -0.099054 0.017287
			CHANNELS 6 Xposition Yposition Zposition Xrotation Yrotation Zrotation
			JOINT Bauch.001
			{
				OFFSET 0.000000 -0.108138 0.003352
				CHANNELS 6 Xposition Yposition Zposition Xrotation Yrotation Zrotation
				JOINT Brust
				{
					OFFSET 0.000000 -0.106705 0.007714
					CHANNELS 6 Xposition Yposition Zposition Xrotation Yrotation Zrotation
					JOINT Hals
					{
						OFFSET 0.000000 -0.138891 -0.015220
						CHANNELS 6 Xposition Yposition Zposition Xrotation Yrotation Zrotation
						JOINT Kopf.002
						{
							OFFSET 0.000000 -0.063334 0.145080
							CHANNELS 6 Xposition Yposition Zposition Xrotation Yrotation Zrotation
							JOINT Kopf
							{
								OFFSET 0.000000 0.009737 -0.101110
								CHANNELS 6 Xposition Yposition Zposition Xrotation Yrotation Zrotation
								JOINT Unterkiefer
								{
									OFFSET -0.000407 -0.073044 -0.019282
									CHANNELS 6 Xposition Yposition Zposition Xrotation Yrotation Zrotation
									JOINT Hals_fett
									{
										OFFSET 0.000407 -0.009642 -0.030854
										CHANNELS 6 Xposition Yposition Zposition Xrotation Yrotation Zrotation
										End Site
										{
											OFFSET 0.000000 0.022820 -0.062015
										}
									}
									JOINT Maulunten
									{
										OFFSET 0.000407 -0.014618 0.001227
										CHANNELS 6 Xposition Yposition Zposition Xrotation Yrotation Zrotation
										End Site
										{
											OFFSET 0.000000 -0.066426 -0.013786
										}
									}
								}
								JOINT Mauloben
								{
									OFFSET -0.000000 -0.098884 -0.010422
									CHANNELS 6 Xposition Yposition Zposition Xrotation Yrotation Zrotation
									End Site
									{
										OFFSET 0.000000 -0.064855 -0.012665
									}
								}
								JOINT MundW_L
								{
									OFFSET 0.036228 -0.075523 -0.015181
									CHANNELS 6 Xposition Yposition Zposition Xrotation Yrotation Zrotation
									End Site
									{
										OFFSET -0.012653 -0.029194 -0.000988
									}
								}
								JOINT MundW_R
								{
									OFFSET -0.036228 -0.075523 -0.015181
									CHANNELS 6 Xposition Yposition Zposition Xrotation Yrotation Zrotation
									End Site
									{
										OFFSET 0.012654 -0.029194 -0.000988
									}
								}
								JOINT Ohr_L
								{
									OFFSET 0.036475 -0.040037 0.085229
									CHANNELS 6 Xposition Yposition Zposition Xrotation Yrotation Zrotation
									End Site
									{
										OFFSET 0.004821 -0.009662 0.029324
									}
								}
								JOINT Ohr_R
								{
									OFFSET -0.036475 -0.040037 0.085229
									CHANNELS 6 Xposition Yposition Zposition Xrotation Yrotation Zrotation
									End Site
									{
										OFFSET -0.004821 -0.009662 0.029324
									}
								}
								JOINT Braun_O_L
								{
									OFFSET 0.036984 -0.083330 0.061266
									CHANNELS 6 Xposition Yposition Zposition Xrotation Yrotation Zrotation
									End Site
									{
										OFFSET -0.024077 -0.024106 -0.014450
									}
								}
								JOINT Braun_O_R
								{
									OFFSET -0.036984 -0.083330 0.061266
									CHANNELS 6 Xposition Yposition Zposition Xrotation Yrotation Zrotation
									End Site
									{
										OFFSET 0.024077 -0.024106 -0.014450
									}
								}
								JOINT aug_lied_O_L
								{
									OFFSET 0.032663 -0.094051 0.047002
									CHANNELS 6 Xposition Yposition Zposition Xrotation Yrotation Zrotation
									End Site
									{
										OFFSET -0.014973 -0.010065 -0.003453
									}
								}
								JOINT aug_lied_O_R
								{
									OFFSET -0.032663 -0.094051 0.047002
									CHANNELS 6 Xposition Yposition Zposition Xrotation Yrotation Zrotation
									End Site
									{
										OFFSET 0.014973 -0.010065 -0.003453
									}
								}
								JOINT aug_lied_U_L
								{
									OFFSET 0.033082 -0.093256 0.043917
									CHANNELS 6 Xposition Yposition Zposition Xrotation Yrotation Zrotation
									End Site
									{
										OFFSET -0.014620 -0.010812 -0.006282
									}
								}
								JOINT aug_lied_U_R
								{
									OFFSET -0.033082 -0.093256 0.043917
									CHANNELS 6 Xposition Yposition Zposition Xrotation Yrotation Zrotation
									End Site
									{
										OFFSET 0.014620 -0.010812 -0.006282
									}
								}
							}
						}
					}
					JOINT Bauch.003
					{
						OFFSET 0.000000 -0.100000 0.100000
						CHANNELS 6 Xposition Yposition Zposition Xrotation Yrotation Zrotation
						JOINT Schalterplatte_L
						{
							OFFSET 0.038208 0.042097 -0.078706
							CHANNELS 6 Xposition Yposition Zposition Xrotation Yrotation Zrotation
							JOINT Oberarm_L
							{
								OFFSET 0.028512 -0.094482 -0.101909
								CHANNELS 6 Xposition Yposition Zposition Xrotation Yrotation Zrotation
								JOINT Unterarm_L
								{
									OFFSET 0.003153 0.098653 -0.177186
									CHANNELS 6 Xposition Yposition Zposition Xrotation Yrotation Zrotation
									JOINT Vorderpfote_L
									{
										OFFSET 0.002604 -0.029246 -0.168049
										CHANNELS 6 Xposition Yposition Zposition Xrotation Yrotation Zrotation
										End Site
										{
											OFFSET 0.000000 -0.045036 0.000028
										}
									}
								}
							}
						}
						JOINT Schalterplatte_R
						{
							OFFSET -0.038208 0.042097 -0.078706
							CHANNELS 6 Xposition Yposition Zposition Xrotation Yrotation Zrotation
							JOINT Oberarm_R
							{
								OFFSET -0.028512 -0.094482 -0.101909
								CHANNELS 6 Xposition Yposition Zposition Xrotation Yrotation Zrotation
								JOINT Unterarm_R
								{
									OFFSET -0.003153 0.098653 -0.177186
									CHANNELS 6 Xposition Yposition Zposition Xrotation Yrotation Zrotation
									JOINT Vorderpfote_R
									{
										OFFSET -0.002604 -0.029246 -0.168048
										CHANNELS 6 Xposition Yposition Zposition Xrotation Yrotation Zrotation
										End Site
										{
											OFFSET 0.000001 -0.045037 0.000028
										}
									}
								}
							}
						}
					}
				}
			}
		}
		JOINT Schwanz
		{
			OFFSET 0.000000 0.005099 -0.011779
			CHANNELS 6 Xposition Yposition Zposition Xrotation Yrotation Zrotation
			JOINT Schwanz.001
			{
				OFFSET 0.000000 0.085347 -0.031697
				CHANNELS 6 Xposition Yposition Zposition Xrotation Yrotation Zrotation
				JOINT Schwanz.002
				{
					OFFSET 0.000000 0.076608 -0.017390
					CHANNELS 6 Xposition Yposition Zposition Xrotation Yrotation Zrotation
					JOINT Schwanz.003
					{
						OFFSET 0.000000 0.083490 0.001496
						CHANNELS 6 Xposition Yposition Zposition Xrotation Yrotation Zrotation
						End Site
						{
							OFFSET 0.000000 0.080253 0.017983
						}
					}
				}
			}
		}
		JOINT Oberschenkel_L
		{
			OFFSET 0.058370 -0.051166 -0.021529
			CHANNELS 6 Xposition Yposition Zposition Xrotation Yrotation Zrotation
			JOINT Unterschenkel_L
			{
				OFFSET 0.014913 -0.012892 -0.167488
				CHANNELS 6 Xposition Yposition Zposition Xrotation Yrotation Zrotation
				JOINT Pfote1_L
				{
					OFFSET -0.002217 0.065703 -0.099301
					CHANNELS 6 Xposition Yposition Zposition Xrotation Yrotation Zrotation
					JOINT Pfote2_L
					{
						OFFSET 0.007647 0.000448 -0.098465
						CHANNELS 6 Xposition Yposition Zposition Xrotation Yrotation Zrotation
						End Site
						{
							OFFSET 0.000000 -0.045418 0.000020
						}
					}
				}
			}
		}
		JOINT Oberschenkel_R
		{
			OFFSET -0.058370 -0.051166 -0.021529
			CHANNELS 6 Xposition Yposition Zposition Xrotation Yrotation Zrotation
			JOINT Unterschenkel_R
			{
				OFFSET -0.014913 -0.012892 -0.167489
				CHANNELS 6 Xposition Yposition Zposition Xrotation Yrotation Zrotation
				JOINT Pfote1_R
				{
					OFFSET 0.002217 0.065703 -0.099301
					CHANNELS 6 Xposition Yposition Zposition Xrotation Yrotation Zrotation
					JOINT Pfote2_R
					{
						OFFSET -0.007647 0.000449 -0.098465
						CHANNELS 6 Xposition Yposition Zposition Xrotation Yrotation Zrotation
						End Site
						{
							OFFSET 0.000000 -0.045418 0.000020
						}
					}
				}
			}
		}
	}
}
MOTION
Frames: 4
Frame Time: 0.041667
0.000000 0.000000 0.000000 -0.000000 0.000000 -0.000000 -0.000000 0.211570 0.405722 0.000002 -0.000000 -0.000000 0.000000 -0.099054 0.017287 -0.000004 0.000000 0.000000 0.000000 -0.108138 0.003352 0.000000 0.000000 0.000000 -0.000000 -0.106705 0.007715 -0.578788 0.000000 0.000003 -0.000000 -0.138891 -0.015220 0.000007 0.000000 -0.000000 -0.000003 -0.094421 0.150012 3.232389 -0.001752 -0.007510 0.000000 0.009737 -0.101110 -0.000002 -0.000003 0.000000 -0.000407 -0.073044 -0.019282 -0.000013 0.000002 -0.000001 0.000407 -0.009642 -0.030854 0.000002 0.000002 -0.000001 0.000407 -0.014618 0.001227 -0.000004 0.000001 0.000002 -0.000000 -0.098884 -0.010422 0.000007 0.000004 -0.000000 0.036228 -0.075523 -0.015181 0.000003 -0.000002 -0.000006 -0.036228 -0.075523 -0.015181 -0.000001 0.000012 0.000003 0.036475 -0.040037 0.085228 -0.000000 0.000001 -0.000002 -0.036475 -0.040037 0.085228 0.000012 -0.000000 -0.000004 0.036984 -0.083330 0.061266 0.000003 0.000003 0.000003 -0.036984 -0.083330 0.061266 0.000005 -0.000002 -0.000015 0.032663 -0.094051 0.047002 0.000003 0.000003 -0.000000 -0.032663 -0.094051 0.047002 -0.000006 0.000013 -0.000000 0.033082 -0.093256 0.043917 0.000001 0.000006 -0.000006 -0.033082 -0.093256 0.043917 0.000006 0.000009 0.000006 -0.000000 -0.100000 0.100000 0.000005 -0.000000 -0.000000 0.038208 0.042097 -0.078706 0.440110 0.034390 0.028280 0.028512 -0.094482 -0.101909 -0.058367 -0.014549 0.029254 0.003153 0.098653 -0.177186 0.408929 -0.039292 0.023886 0.002604 -0.029246 -0.168049 0.229434 0.000038 0.014116 -0.038208 0.042097 -0.078706 0.435740 -0.034667 -0.086574 -0.028512 -0.094482 -0.101909 -0.059035 0.018953 0.002342 -0.003153 0.098653 -0.177186 0.411112 0.010185 -0.010926 -0.002604 -0.029246 -0.168048 0.230252 -0.000015 -0.006310 0.000000 0.010502 -0.003676 -33.371003 -0.011962 -0.007820 -0.000000 0.085347 -0.031697 -19.002020 0.002928 0.003774 0.000000 0.076608 -0.017390 -11.636934 0.002107 0.004287 0.000000 0.083490 0.001496 -19.975472 0.000515 0.004749 0.058370 -0.051166 -0.021529 0.001743 -0.000020 0.000156 0.014913 -0.012892 -0.167488 0.005857 -0.119924 0.361288 -0.002217 0.065703 -0.099301 -0.036717 -0.001568 -0.002865 0.007647 0.000448 -0.098465 0.039983 -2.275374 -0.357820 -0.058370 -0.051166 -0.021529 -0.036933 -0.000401 0.003321 -0.014913 -0.012892 -0.167489 0.036657 0.118310 -0.360766 0.002217 0.065703 -0.099301 0.044771 0.004743 -0.003453 -0.007647 0.000449 -0.098465 0.033919 2.266703 -0.362191 
0.000000 0.000000 0.000000 -0.000000 0.000000 -0.000000 -0.000000 0.211570 0.405722 0.000002 -0.000000 -0.000000 0.000000 -0.099054 0.017287 -0.000004 0.000000 0.000000 0.000000 -0.108138 0.003352 0.000000 0.000000 0.000000 0.000000 -0.106705 0.007714 -0.476818 -0.000000 0.000002 -0.000000 -0.138891 -0.015220 0.000005 -0.000000 0.000000 -0.000003 -0.094421 0.150012 3.232388 -0.001752 -0.007510 0.000000 0.009737 -0.101110 -0.000002 -0.000003 0.000000 -0.000407 -0.073044 -0.019282 -0.000012 0.000002 -0.000001 0.000407 -0.009642 -0.030854 -0.000002 0.000002 -0.000001 0.000407 -0.014618 0.001227 -0.000007 0.000001 0.000002 -0.000000 -0.098884 -0.010422 0.000008 0.000004 -0.000000 0.036228 -0.075523 -0.015181 0.000007 -0.000002 -0.000006 -0.036228 -0.075523 -0.015181 0.000002 0.000012 0.000001 0.036475 -0.040037 0.085228 0.000002 0.000002 -0.000001 -0.036475 -0.040037 0.085228 0.000010 -0.000001 -0.000005 0.036984 -0.083330 0.061266 0.000005 0.000001 0.000008 -0.036984 -0.083330 0.061266 0.000005 -0.000007 -0.000009 0.032663 -0.094051 0.047002 0.000004 0.000004 -0.000009 -0.032663 -0.094051 0.047002 -0.000005 0.000015 0.000006 0.033082 -0.093256 0.043917 -0.000002 0.000003 -0.000005 -0.033082 -0.093256 0.043917 0.000009 0.000006 0.000005 -0.000000 -0.100000 0.100000 0.000002 0.000000 0.000000 0.038208 0.042097 -0.078706 0.362497 0.028354 0.023289 0.028512 -0.094482 -0.101909 -0.047602 -0.011972 0.024048 0.003153 0.098653 -0.177186 0.336658 -0.032310 0.019621 0.002604 -0.029246 -0.168049 0.188723 0.000027 0.011606 -0.038208 0.042097 -0.078706 0.358883 -0.028507 -0.071328 -0.028512 -0.094482 -0.101909 -0.048152 0.015496 0.001914 -0.003153 0.098653 -0.177186 0.338446 0.008337 -0.008967 -0.002604 -0.029246 -0.168048 0.189393 -0.000013 -0.005178 -0.000000 0.010502 -0.003676 -33.371075 -0.120133 -0.078583 -0.000000 0.085347 -0.031697 -19.002029 0.029405 0.037899 0.000000 0.076608 -0.017390 -11.636937 0.021155 0.043052 0.000000 0.083490 0.001496 -19.975469 0.005175 0.047689 0.058370 -0.051166 -0.021529 0.001743 -0.000020 0.000156 0.014913 -0.012892 -0.167488 0.005857 -0.119924 0.361288 -0.002217 0.065703 -0.099301 -0.036717 -0.001568 -0.002865 0.007647 0.000448 -0.098465 0.039983 -2.275374 -0.357820 -0.058370 -0.051166 -0.021529 -0.036933 -0.000401 0.003321 -0.014913 -0.012892 -0.167489 0.036657 0.118310 -0.360766 0.002217 0.065703 -0.099301 0.044771 0.004743 -0.003453 -0.007647 0.000449 -0.098465 0.033919 2.266703 -0.362191 
0.000000 0.000000 0.000000 -0.000000 0.000000 -0.000000 -0.000000 0.211570 0.405722 0.000002 -0.000000 -0.000000 0.000000 -0.099054 0.017287 -0.000004 0.000000 0.000000 0.000000 -0.108138 0.003352 0.000000 0.000000 0.000000 0.000000 -0.106705 0.007714 -0.382294 0.000000 0.000001 0.000000 -0.138891 -0.015220 0.000007 0.000000 -0.000000 -0.000003 -0.094421 0.150012 3.232392 -0.001752 -0.007510 0.000000 0.009737 -0.101110 -0.000001 -0.000003 0.000000 -0.000407 -0.073044 -0.019282 -0.000013 0.000002 -0.000001 0.000407 -0.009642 -0.030854 0.000005 0.000002 -0.000001 0.000407 -0.014618 0.001227 0.000003 0.000002 0.000002 -0.000000 -0.098884 -0.010422 0.000005 0.000004 -0.000000 0.036228 -0.075523 -0.015181 0.000007 -0.000003 -0.000010 -0.036228 -0.075523 -0.015181 0.000003 0.000012 0.000004 0.036475 -0.040037 0.085228 0.000004 0.000002 -0.000000 -0.036475 -0.040037 0.085228 0.000009 0.000002 -0.000005 0.036984 -0.083330 0.061266 0.000012 -0.000003 0.000008 -0.036984 -0.083330 0.061266 0.000012 -0.000004 -0.000008 0.032663 -0.094051 0.047002 0.000001 0.000006 -0.000009 -0.032663 -0.094051 0.047002 -0.000008 0.000013 0.000012 0.033082 -0.093256 0.043917 0.000002 0.000003 -0.000009 -0.033082 -0.093256 0.043917 0.000010 0.000007 0.000009 -0.000000 -0.100000 0.100000 0.000002 0.000000 -0.000000 0.038208 0.042097 -0.078706 0.290574 0.022776 0.018671 0.028512 -0.094482 -0.101909 -0.037711 -0.009585 0.019227 0.003153 0.098653 -0.177186 0.269667 -0.025843 0.015682 0.002604 -0.029246 -0.168049 0.151032 0.000019 0.009282 -0.038208 0.042097 -0.078706 0.287664 -0.022812 -0.057183 -0.028512 -0.094482 -0.101909 -0.038150 0.012314 0.001513 -0.003153 0.098653 -0.177186 0.271093 0.006635 -0.007157 -0.002604 -0.029246 -0.168048 0.151561 -0.000009 -0.004133 -0.000000 0.010502 -0.003676 -33.371785 -0.373968 -0.244642 -0.000000 0.085347 -0.031697 -19.002124 0.091521 0.117963 -0.000000 0.076608 -0.017390 -11.637018 0.065845 0.134000 0.000000 0.083490 0.001496 -19.975500 0.016108 0.148432 0.058370 -0.051166 -0.021529 0.001743 -0.000020 0.000156 0.014913 -0.012892 -0.167488 0.005857 -0.119924 0.361288 -0.002217 0.065703 -0.099301 -0.036717 -0.001568 -0.002865 0.007647 0.000448 -0.098465 0.039983 -2.275374 -0.357820 -0.058370 -0.051166 -0.021529 -0.036933 -0.000401 0.003321 -0.014913 -0.012892 -0.167489 0.036657 0.118310 -0.360766 0.002217 0.065703 -0.099301 0.044771 0.004743 -0.003453 -0.007647 0.000449 -0.098465 0.033919 2.266703 -0.362191 
0.000000 0.000000 0.000000 -0.000000 0.000000 -0.000000 -0.000000 0.211570 0.405722 0.000002 -0.000000 -0.000000 0.000000 -0.099054 0.017287 -0.000004 0.000000 0.000000 0.000000 -0.108138 0.003352 0.000000 0.000000 0.000000 0.000000 -0.106705 0.007715 -0.296245 -0.000000 0.000001 0.000000 -0.138891 -0.015220 0.000003 0.000000 0.000000 -0.000003 -0.094421 0.150012 3.232386 -0.001752 -0.007510 0.000000 0.009737 -0.101110 0.000001 -0.000003 0.000000 -0.000407 -0.073044 -0.019282 -0.000013 0.000003 -0.000001 0.000407 -0.009642 -0.030854 0.000003 0.000002 -0.000000 0.000407 -0.014618 0.001227 0.000005 0.000001 0.000003 -0.000000 -0.098884 -0.010422 0.000006 0.000004 -0.000000 0.036228 -0.075523 -0.015181 0.000006 -0.000003 -0.000006 -0.036228 -0.075523 -0.015181 -0.000001 0.000012 0.000003 0.036475 -0.040037 0.085228 0.000005 0.000000 -0.000002 -0.036475 -0.040037 0.085229 0.000007 0.000001 -0.000006 0.036984 -0.083330 0.061266 0.000010 -0.000002 0.000009 -0.036984 -0.083330 0.061266 0.000004 -0.000014 -0.000006 0.032663 -0.094051 0.047002 0.000003 0.000003 -0.000007 -0.032663 -0.094051 0.047002 -0.000010 0.000018 0.000011 0.033082 -0.093256 0.043917 0.000001 0.000001 -0.000005 -0.033082 -0.093256 0.043917 0.000012 0.000008 0.000006 -0.000000 -0.100000 0.100000 0.000002 0.000000 0.000000 0.038208 0.042097 -0.078706 0.225097 0.017680 0.014465 0.028512 -0.094482 -0.101909 -0.028728 -0.007411 0.014840 0.003153 0.098653 -0.177186 0.208663 -0.019953 0.012101 0.002604 -0.029246 -0.168049 0.116729 0.000012 0.007167 -0.038208 0.042097 -0.078706 0.222836 -0.017639 -0.044295 -0.028512 -0.094482 -0.101909 -0.029051 0.009435 0.001153 -0.003153 0.098653 -0.177186 0.209764 0.005092 -0.005515 -0.002604 -0.029246 -0.168048 0.117129 -0.000007 -0.003184 -0.000000 0.010502 -0.003676 -33.374415 -0.773574 -0.506091 -0.000000 0.085347 -0.031697 -19.002430 0.189276 0.243966 0.000000 0.076608 -0.017390 -11.637266 0.136177 0.277130 0.000000 0.083490 0.001496 -19.975563 0.033313 0.306979 0.058370 -0.051166 -0.021529 0.001743 -0.000020 0.000156 0.014913 -0.012892 -0.167488 0.005857 -0.119924 0.361288 -0.002217 0.065703 -0.099301 -0.036717 -0.001568 -0.002865 0.007647 0.000448 -0.098465 0.039983 -2.275374 -0.357820 -0.058370 -0.051166 -0.021529 -0.036933 -0.000401 0.003321 -0.014913 -0.012892 -0.167489 0.036657 0.118310 -0.360766 0.002217 0.065703 -0.099301 0.044771 0.004743 -0.003453 -0.007647 0.000449 -0.098465 0.033919 2.266703 -0.362191 
